<svg xmlns="http://www.w3.org/2000/svg" xmlns:xlink="http://www.w3.org/1999/xlink" version="1.1" id="Layer_1" x="0px" y="0px" width="100px" height="100px" viewBox="5.0 -10.0 100.0 135.0" enable-background="new 0 0 100 100" xml:space="preserve">
<g>
	<path fill="#000000" d="M49.299,11.958c-20.603,0-37.365,16.762-37.365,37.366c0,20.603,16.763,37.365,37.365,37.365   c20.604,0,37.366-16.762,37.366-37.365C86.665,28.72,69.902,11.958,49.299,11.958z M49.299,82.019   c-18.028,0-32.694-14.667-32.694-32.695c0-18.028,14.666-32.695,32.694-32.695s32.695,14.667,32.695,32.695   C81.994,67.352,67.327,82.019,49.299,82.019z"/>
	<path fill="#000000" d="M49.299,30.114c-10.218,0-18.532,8.313-18.532,18.532c0,10.219,8.314,18.532,18.532,18.532   c10.219,0,18.532-8.313,18.532-18.532C67.831,38.427,59.518,30.114,49.299,30.114z M49.299,62.508   c-7.644,0-13.861-6.218-13.861-13.861s6.218-13.862,13.861-13.862s13.862,6.218,13.862,13.862S56.942,62.508,49.299,62.508z"/>
	<path fill="#000000" d="M53.638,47.897c1.036-0.592,1.71-1.29,2.02-2.094c0.312-0.804,0.467-1.556,0.467-2.257   c0-1.559-0.589-2.889-1.766-3.989c-1.177-1.1-2.838-1.65-4.982-1.65c-2.146,0-3.808,0.55-4.984,1.65   c-1.177,1.101-1.766,2.43-1.766,3.989c0,0.701,0.156,1.453,0.468,2.257c0.312,0.805,0.988,1.552,2.028,2.243   c-1.05,0.493-1.846,1.228-2.39,2.206c-0.545,0.977-0.816,2.066-0.816,3.27c0,1.807,0.616,3.344,1.852,4.611   s3.052,1.901,5.452,1.901s4.269-0.634,5.607-1.901c1.338-1.268,2.007-2.805,2.007-4.611c0-1.203-0.268-2.293-0.803-3.27   C55.497,49.273,54.698,48.489,53.638,47.897z M47.386,42.028c0.48-0.478,1.146-0.718,1.997-0.718c0.86,0,1.525,0.24,1.995,0.718   c0.471,0.479,0.706,1.143,0.706,1.991c0,0.779-0.235,1.416-0.706,1.909c-0.47,0.494-1.135,0.74-1.995,0.74   c-0.852,0-1.517-0.247-1.997-0.74c-0.479-0.493-0.72-1.129-0.72-1.909C46.666,43.171,46.907,42.507,47.386,42.028z M51.662,55.696   c-0.548,0.583-1.306,0.874-2.271,0.874c-0.969,0-1.726-0.291-2.272-0.874c-0.548-0.581-0.821-1.4-0.821-2.457   c0-1.095,0.278-1.926,0.836-2.493s1.31-0.851,2.258-0.851c0.946,0,1.699,0.283,2.257,0.851s0.835,1.398,0.835,2.493   C52.482,54.296,52.209,55.115,51.662,55.696z"/>
</g>
<text x="0.0" y="117.5" font-size="5.0" font-weight="bold" font-family="Helvetica Neue, Helvetica, Arial-Unicode, Arial, Sans-serif" fill="#000000">Created by Ema Dimitrova</text><text x="0.0" y="122.5" font-size="5.0" font-weight="bold" font-family="Helvetica Neue, Helvetica, Arial-Unicode, Arial, Sans-serif" fill="#000000">from the Noun Project</text></svg>